{"title":"[Ryuketsu] Kill la Kill - 25 (OVA) [PS3/Xbox Compatible-720p]","uid":10988400,"size":512184309,"categoryP":"video","categoryS":"hd___tv_shows","magnet":"?xt=urn:btih:937c31a6589a3fb1d4acd41cff52da784dcddfde&amp;dn=%5BRyuketsu%5D+Kill+la+Kill+-+25+%28OVA%29+%5BPS3%2FXbox+Compatible-720p%5D&amp;tr=udp%3A%2F%2Ftracker.openbittorrent.com%3A80&amp;tr=udp%3A%2F%2Fopen.demonii.com%3A1337&amp;tr=udp%3A%2F%2Ftracker.coppersurfer.tk%3A6969&amp;tr=udp%3A%2F%2Fexodus.desync.com%3A6969","seeders":4,"leechers":0,"uploader":null,"files":-1,"time":1409956327,"description":"This is a 720p, hardsubbed, PlayStation/Xbox-compatible release of Ryuketsu's release for the Kill la Kill OVA, a.k.a. episode 25. All translation and subtitling credit goes to Ryuketsu.\n\nThere are a small handful of typos in this release, but I didn't catch them until after I'd encoded it, so I hope they don't bother you too much -- because I'm not encoding it again.\n\nIf you want to download the original, soft-subbed, 1080p release of this OVA, go here: http://www.nyaa.se/?page=view&amp;tid=594862\n\n\nMediaInfo:\n\nGeneral\nComplete name                  : [Ryuketsu] Kill la Kill - 25 (OVA) [hardsubbed].mp4\nFormat                         : MPEG-4\nFormat profile                 : Base Media\nCodec ID                       : isom\nFile size                      : 488 MiB\nDuration                       : 27mn 26s\nOverall bit rate mode          : Variable\nOverall bit rate               : 2 489 Kbps\nEncoded date                   : UTC 2014-09-05 17:41:32\nTagged date                    : UTC 2014-09-05 17:41:32\n\nVideo\nID                             : 1\nFormat                         : AVC\nFormat/Info                    : Advanced Video Codec\nFormat profile                 : &lt;a class=&quot;__cf_email__&quot; href=&quot;/cdn-cgi/l/email-protection&quot; data-cfemail=&quot;733b1a141b333f475d42&quot;&gt;[email&amp;#160;protected]&lt;/a&gt;&lt;script cf-hash='f9e31' type=&quot;text/javascript&quot;&gt;\n/* &lt;![CDATA[ */!function(){try{var t=&quot;currentScript&quot;in document?document.currentScript:function(){for(var t=document.getElementsByTagName(&quot;script&quot;),e=t.length;e--;)if(t[e].getAttribute(&quot;cf-hash&quot;))return t[e]}();if(t&amp;&amp;t.previousSibling){var e,r,n,i,c=t.previousSibling,a=c.getAttribute(&quot;data-cfemail&quot;);if(a){for(e=&quot;&quot;,r=parseInt(a.substr(0,2),16),n=2;a.length-n;n+=2)i=parseInt(a.substr(n,2),16)^r,e+=String.fromCharCode(i);e=document.createTextNode(e),c.parentNode.replaceChild(e,c)}}}catch(u){}}();/* ]]&gt; */&lt;/script&gt;\nFormat settings, CABAC         : Yes\nFormat settings, ReFrames      : 4 frames\nCodec ID                       : avc1\nCodec ID/Info                  : Advanced Video Coding\nDuration                       : 27mn 26s\nBit rate                       : 2 325 Kbps\nMaximum bit rate               : 20.1 Mbps\nWidth                          : 1 280 pixels\nHeight                         : 720 pixels\nDisplay aspect ratio           : 16:9\nFrame rate mode                : Constant\nFrame rate                     : 23.976 fps\nColor space                    : YUV\nChroma subsampling             : 4:2:0\nBit depth                      : 8 bits\nScan type                      : Progressive\nBits/(Pixel*Frame)             : 0.105\nStream size                    : 456 MiB (93%)\nWriting library                : x264 core 142 r2431 ac76440\nEncoding settings              : cabac=1 / ref=3 / deblock=1:1:1 / analyse=0x3:0x133 / me=umh / subme=10 / psy=1 / psy_rd=0.40:0.00 / mixed_ref=1 / me_range=24 / chroma_me=1 / trellis=2 / 8x8dct=1 / cqm=0 / deadzone=21,11 / fast_pskip=1 / chroma_qp_offset=-2 / threads=12 / lookahead_threads=1 / sliced_threads=0 / nr=0 / decimate=1 / interlaced=0 / bluray_compat=0 / constrained_intra=0 / bframes=3 / b_pyramid=2 / b_adapt=2 / b_bias=0 / direct=3 / weightb=1 / open_gop=0 / weightp=2 / keyint=240 / keyint_min=23 / scenecut=40 / intra_refresh=0 / rc_lookahead=60 / rc=crf / mbtree=1 / crf=17.5 / qcomp=0.60 / qpmin=0 / qpmax=69 / qpstep=4 / vbv_maxrate=24000 / vbv_bufsize=24000 / crf_max=0.0 / nal_hrd=none / filler=0 / ip_ratio=1.40 / aq=1:0.60\nEncoded date                   : UTC 2014-09-05 17:41:32\nTagged date                    : UTC 2014-09-05 17:41:53\n\nAudio\nID                             : 2\nFormat                         : AAC\nFormat/Info                    : Advanced Audio Codec\nFormat profile                 : LC\nCodec ID                       : 40\nDuration                       : 27mn 26s\nBit rate mode                  : Variable\nBit rate                       : 159 Kbps\nMaximum bit rate               : 321 Kbps\nChannel(s)                     : 2 channels\nChannel positions              : Front: L R\nSampling rate                  : 48.0 KHz\nCompression mode               : Lossy\nStream size                    : 31.2 MiB (6%)\nLanguage                       : Japanese\nEncoded date                   : UTC 2014-09-05 17:41:51\nTagged date                    : UTC 2014-09-05 17:41:53","torrent":{"xt":"urn:btih:937c31a6589a3fb1d4acd41cff52da784dcddfde","amp;dn":"%5BRyuketsu%5D+Kill+la+Kill+-+25+%28OVA%29+%5BPS3%2FXbox+Compatible-720p%5D","amp;tr":["udp%3A%2F%2Ftracker.openbittorrent.com%3A80","udp%3A%2F%2Fopen.demonii.com%3A1337","udp%3A%2F%2Ftracker.coppersurfer.tk%3A6969","udp%3A%2F%2Fexodus.desync.com%3A6969"],"infoHash":"937c31a6589a3fb1d4acd41cff52da784dcddfde","infoHashBuffer":{"type":"Buffer","data":[147,124,49,166,88,154,63,177,212,172,212,28,255,82,218,120,77,205,223,222]},"announce":[],"urlList":[]}}